<?xml version="1.0" standalone="no"?>
<!DOCTYPE svg PUBLIC "-//W3C//DTD SVG 1.1//EN" "http://www.w3.org/Graphics/SVG/1.1/DTD/svg11.dtd" >
<svg xmlns="http://www.w3.org/2000/svg" xmlns:xlink="http://www.w3.org/1999/xlink" version="1.1">
<metadata>
Created by FontForge 20190801 at Mon Apr 30 09:56:58 2007
 By root
Copyright (c) 1989 Adobe Systems Incorporated.  All Rights Reserved.Walbaum is a registered trademark of Berthold.
</metadata>
<defs>
<font id="Walbaum-Bold" horiz-adv-x="556" >
  <font-face 
    font-family="Walbaum"
    font-weight="700"
    font-stretch="normal"
    units-per-em="1000"
    panose-1="0 0 0 0 0 0 0 0 0 0"
    ascent="800"
    descent="-200"
    x-height="490"
    cap-height="715"
    bbox="-166 -261 1121 962"
    underline-thickness="50"
    underline-position="-125"
    unicode-range="U+0020-FB02"
  />
<missing-glyph horiz-adv-x="278" 
 />
    <glyph glyph-name=".notdef" horiz-adv-x="278" 
 />
    <glyph glyph-name="space" unicode=" " horiz-adv-x="278" 
 />
    <glyph glyph-name="exclam" unicode="!" horiz-adv-x="296" 
d="M132 208l-49 354c-4 28 -10 57 -10 86c0 44 29 79 75 79s75 -35 75 -79c0 -29 -6 -58 -10 -86l-49 -354h-32zM67 69c0 45 36 81 81 81s81 -36 81 -81s-36 -81 -81 -81s-81 36 -81 81z" />
    <glyph glyph-name="quotedbl" unicode="&#x22;" horiz-adv-x="481" 
d="M197 625l-21 -187c-2 -23 -8 -42 -28 -42s-26 19 -28 42l-21 187c-3 23 -3 30 -3 43c0 24 8 59 52 59s52 -35 52 -59c0 -13 0 -20 -3 -43zM382 625l-21 -187c-2 -23 -8 -42 -28 -42s-26 19 -28 42l-21 187c-3 23 -3 30 -3 43c0 24 8 59 52 59s52 -35 52 -59
c0 -13 0 -20 -3 -43z" />
    <glyph glyph-name="numbersign" unicode="#" 
d="M281 0l28 201h-104l-28 -201h-88l28 201h-90v84h102l18 124h-90v84h102l28 201h88l-28 -201h104l28 201h88l-28 -201h90v-84h-102l-18 -124h90v-84h-102l-28 -201h-88zM321 285l18 124h-104l-18 -124h104z" />
    <glyph glyph-name="dollar" unicode="$" 
d="M299 266v-242c70 4 133 36 133 114c0 67 -61 100 -133 128zM257 457v213c-63 0 -115 -39 -115 -105c0 -54 50 -82 115 -108zM257 -99v87c-75 1 -151 17 -221 46l-8 200h34c5 -93 77 -198 195 -210v258c-106 40 -219 84 -219 215c0 141 113 204 219 209v87h42v-87
c48 -2 97 -15 175 -43l8 -166h-34c-16 80 -70 149 -149 168v-224c105 -40 229 -88 229 -241c0 -117 -99 -201 -229 -212v-87h-42z" />
    <glyph glyph-name="percent" unicode="%" horiz-adv-x="1000" 
d="M664 161c0 -42 1 -137 69 -137s69 95 69 137s-1 137 -69 137s-69 -95 -69 -137zM251 -28l443 750h56l-443 -750h-56zM94 533c0 102 72 173 173 173s173 -71 173 -173s-72 -173 -173 -173s-173 71 -173 173zM198 533c0 -42 1 -137 69 -137s69 95 69 137s-1 137 -69 137
s-69 -95 -69 -137zM560 161c0 102 72 173 173 173s173 -71 173 -173s-72 -173 -173 -173s-173 71 -173 173z" />
    <glyph glyph-name="ampersand" unicode="&#x26;" horiz-adv-x="815" 
d="M168 249c0 -67 70 -207 159 -207c47 0 85 19 110 42c-65 97 -119 204 -173 309c-51 -26 -96 -69 -96 -144zM337 636c0 -42 21 -84 48 -137c45 25 93 76 93 132c0 48 -24 75 -71 75c-42 0 -70 -28 -70 -70zM205 566c0 116 102 170 207 170c63 0 144 -24 144 -100
c0 -78 -98 -130 -155 -166l144 -270c39 49 64 123 64 166c0 47 -19 67 -68 67h-34v30h278v-30h-33c-118 0 -98 -145 -188 -264c34 -62 68 -97 108 -97c54 0 71 39 71 87c0 27 -5 52 -13 76l26 9c10 -28 17 -56 17 -86c0 -104 -73 -170 -179 -170c-63 0 -104 21 -140 71
c-58 -42 -128 -71 -211 -71c-96 0 -213 63 -213 186c0 125 130 193 220 249c-31 67 -45 99 -45 143z" />
    <glyph glyph-name="quoteright" unicode="&#x2019;" horiz-adv-x="222" 
d="M58 396l-13 28c60 27 107 88 103 157c-15 -6 -32 -10 -51 -10c-40 0 -77 30 -77 75c0 48 36 81 84 81c73 0 98 -61 98 -122c0 -97 -59 -169 -144 -209z" />
    <glyph glyph-name="parenleft" unicode="(" horiz-adv-x="444" 
d="M411 727l18 -27c-151 -114 -195 -296 -195 -467s44 -353 195 -467l-18 -27c-204 128 -321 278 -321 494s117 366 321 494z" />
    <glyph glyph-name="parenright" unicode=")" horiz-adv-x="444" 
d="M33 -261l-18 27c151 114 195 296 195 467s-44 353 -195 467l18 27c204 -128 321 -278 321 -494s-117 -366 -321 -494z" />
    <glyph glyph-name="asterisk" unicode="*" horiz-adv-x="408" 
d="M75 453c0 56 65 50 110 91c-59 -1 -80 -11 -99 -11c-31 0 -51 12 -51 46s18 68 55 68c39 0 66 -66 100 -77c-3 34 -46 83 -46 109c0 37 32 48 60 48s60 -11 60 -48c0 -26 -43 -75 -46 -109c34 11 61 77 100 77c37 0 55 -34 55 -68s-20 -46 -51 -46c-19 0 -40 10 -99 11
c45 -41 110 -35 110 -91c0 -34 -38 -57 -61 -57c-65 0 -42 56 -68 134h1h-2c-25 -78 -2 -134 -67 -134c-23 0 -61 23 -61 57z" />
    <glyph glyph-name="plus" unicode="+" horiz-adv-x="600" 
d="M248 0v201h-201v104h201v201h104v-201h201v-104h-201v-201h-104z" />
    <glyph glyph-name="comma" unicode="," horiz-adv-x="278" 
d="M86 -181l-13 28c60 27 107 88 103 157c-15 -6 -32 -10 -51 -10c-40 0 -77 30 -77 75c0 48 36 81 84 81c73 0 98 -61 98 -122c0 -97 -59 -169 -144 -209z" />
    <glyph glyph-name="hyphen" unicode="-" horiz-adv-x="407" 
d="M34 188v96h339v-96h-339z" />
    <glyph glyph-name="period" unicode="." horiz-adv-x="278" 
d="M58 69c0 45 36 81 81 81s81 -36 81 -81s-36 -81 -81 -81s-81 36 -81 81z" />
    <glyph glyph-name="slash" unicode="/" horiz-adv-x="389" 
d="M5 -12l273 739h106l-273 -739h-106z" />
    <glyph glyph-name="zero" unicode="0" 
d="M40 347c0 154 59 359 238 359s238 -205 238 -359s-59 -359 -238 -359s-238 205 -238 359zM196 347c0 -247 6 -329 82 -329s82 82 82 329s-6 329 -82 329s-82 -82 -82 -329z" />
    <glyph glyph-name="one" unicode="1" 
d="M123 0v30h99v527c-27 -26 -58 -49 -89 -71l-16 26c74 54 172 147 208 194h47v-676h93v-30h-342z" />
    <glyph glyph-name="two" unicode="2" 
d="M37 0l-7 21c119 122 292 271 292 458c0 84 -18 167 -116 167c-80 0 -120 -87 -120 -148c0 -75 38 -124 91 -156l-13 -27c-65 38 -108 96 -108 185c0 108 83 206 208 206c126 0 208 -81 208 -209c0 -169 -183 -273 -294 -363v-2h155c83 0 113 10 139 93l30 -10l-75 -215
h-390z" />
    <glyph glyph-name="three" unicode="3" 
d="M51 494l93 200h341l8 -24l-251 -226l2 -2c20 6 40 9 63 9c119 0 195 -100 195 -219c0 -150 -90 -244 -238 -244c-101 0 -177 53 -217 161l29 9c29 -75 83 -128 150 -128c120 0 120 99 120 191c0 73 0 188 -95 188c-58 0 -98 -50 -136 -84l-22 23l243 220h-213l-44 -87z
" />
    <glyph glyph-name="four" unicode="4" 
d="M268 248v280h-2l-191 -280h193zM268 0v212h-241v29l315 465h76v-458h68v86h30v-214h-30v92h-68v-212h-150z" />
    <glyph glyph-name="five" unicode="5" 
d="M81 296l39 398h205c54 0 87 0 111 61l27 -11c-68 -180 -86 -182 -274 -182h-50l-19 -176l2 -2c47 59 102 76 166 76c130 0 205 -102 205 -225c0 -146 -99 -247 -242 -247c-114 0 -196 78 -221 195l31 8c26 -82 79 -155 163 -155c106 0 113 104 113 193
c0 79 -9 177 -110 177c-61 0 -107 -57 -116 -113z" />
    <glyph glyph-name="six" unicode="6" 
d="M516 232c0 -136 -88 -244 -227 -244c-190 0 -242 187 -242 348c0 174 79 370 276 370c83 0 163 -38 163 -125c0 -41 -20 -62 -57 -62c-40 0 -57 24 -57 52c0 25 13 44 13 64c0 33 -38 41 -61 41c-122 0 -127 -183 -127 -272h2c27 35 70 52 115 52c131 0 202 -99 202 -224
zM197 216c0 -86 10 -198 84 -198c76 0 85 112 85 198c0 94 -3 198 -85 198c-81 0 -84 -104 -84 -198z" />
    <glyph glyph-name="seven" unicode="7" 
d="M47 484l55 210h414c-102 -212 -174 -384 -193 -694h-166c36 211 156 392 269 568h-324l-26 -93z" />
    <glyph glyph-name="eight" unicode="8" 
d="M491 548c0 -64 -49 -113 -102 -137c101 -51 124 -123 124 -201c0 -140 -118 -222 -234 -222c-117 0 -236 64 -236 194c0 84 57 134 126 169c-66 35 -102 91 -102 168c0 115 111 187 216 187c96 0 208 -46 208 -158zM409 151c0 113 -121 140 -203 181
c-38 -43 -59 -99 -59 -156c0 -79 42 -158 128 -158c79 0 134 51 134 133zM395 530c0 83 -30 146 -119 146c-59 0 -105 -38 -105 -101c0 -96 126 -115 191 -149c21 26 33 69 33 104z" />
    <glyph glyph-name="nine" unicode="9" 
d="M40 462c0 136 88 244 227 244c190 0 242 -187 242 -348c0 -174 -79 -370 -276 -370c-83 0 -163 38 -163 125c0 41 20 62 57 62c40 0 57 -24 57 -52c0 -25 -13 -44 -13 -64c0 -33 38 -41 61 -41c122 0 127 183 127 272h-2c-27 -35 -70 -52 -115 -52
c-131 0 -202 99 -202 224zM359 478c0 86 -10 198 -84 198c-76 0 -85 -112 -85 -198c0 -94 3 -198 85 -198c81 0 84 104 84 198z" />
    <glyph glyph-name="colon" unicode=":" horiz-adv-x="278" 
d="M58 415c0 45 36 81 81 81s81 -36 81 -81s-36 -81 -81 -81s-81 36 -81 81zM58 69c0 45 36 81 81 81s81 -36 81 -81s-36 -81 -81 -81s-81 36 -81 81z" />
    <glyph glyph-name="semicolon" unicode=";" horiz-adv-x="278" 
d="M86 -181l-13 28c60 27 107 88 103 157c-15 -6 -32 -10 -51 -10c-40 0 -77 30 -77 75c0 48 36 81 84 81c73 0 98 -61 98 -122c0 -97 -59 -169 -144 -209zM58 415c0 45 36 81 81 81s81 -36 81 -81s-36 -81 -81 -81s-81 36 -81 81z" />
    <glyph glyph-name="less" unicode="&#x3c;" horiz-adv-x="600" 
d="M553 514v-102l-372 -159l372 -159v-102l-506 218v86z" />
    <glyph glyph-name="equal" unicode="=" horiz-adv-x="600" 
d="M47 305v104h506v-104h-506zM47 97v104h506v-104h-506z" />
    <glyph glyph-name="greater" unicode="&#x3e;" horiz-adv-x="600" 
d="M47 -8v102l372 159l-372 159v102l506 -218v-86z" />
    <glyph glyph-name="question" unicode="?" horiz-adv-x="481" 
d="M201 208v34c0 148 118 81 118 289c0 70 0 166 -86 166c-27 0 -51 -13 -51 -40c0 -18 10 -44 10 -66c0 -38 -22 -60 -60 -60c-39 0 -60 31 -60 71c0 84 99 125 170 125c136 0 215 -61 215 -201c0 -213 -220 -157 -220 -275v-43h-36zM142 69c0 45 36 81 81 81
s81 -36 81 -81s-36 -81 -81 -81s-81 36 -81 81z" />
    <glyph glyph-name="at" unicode="@" horiz-adv-x="800" 
d="M338 306c0 -56 26 -89 54 -89c49 0 118 91 118 206c0 45 -11 68 -42 68c-51 0 -130 -78 -130 -185zM533 499l10 36h79l-61 -250c-4 -14 -7 -30 -7 -42c0 -17 3 -38 35 -38c55 0 109 117 109 205c0 118 -106 245 -278 245c-128 0 -276 -88 -276 -314
c0 -167 135 -281 286 -281c95 0 151 20 212 51l12 -58c-67 -36 -139 -65 -223 -65c-279 0 -401 209 -401 353c0 231 179 386 390 386c197 0 350 -135 350 -316c0 -109 -72 -254 -197 -254c-81 0 -89 45 -97 77h-2c-7 -18 -58 -77 -123 -77c-53 0 -103 26 -103 131
c0 108 68 263 207 263c50 0 69 -26 76 -52h2z" />
    <glyph glyph-name="A" unicode="A" horiz-adv-x="741" 
d="M22 0v30h77l248 685h36l253 -685h83v-30h-358v30h101l-71 206h-183l-71 -206h99v-30h-214zM380 266l-80 231h-2l-80 -231h162z" />
    <glyph glyph-name="B" unicode="B" horiz-adv-x="722" 
d="M282 375v-345h57c112 0 170 45 170 181c0 115 -38 164 -153 164h-74zM282 685v-280h64c89 0 124 39 124 139c0 99 -29 141 -130 141h-58zM30 0v30h96v655h-96v30h378c125 0 224 -26 224 -147c0 -113 -90 -164 -192 -171v-2c121 -3 237 -63 237 -199
c0 -112 -77 -196 -248 -196h-399z" />
    <glyph glyph-name="C" unicode="C" horiz-adv-x="758" 
d="M701 669v-203h-30c-9 124 -109 231 -225 231c-196 0 -218 -201 -218 -339c0 -126 12 -340 211 -340c118 0 224 109 237 230h30v-202c-75 -31 -183 -58 -271 -58c-229 0 -375 154 -375 370c0 215 146 369 375 369c88 0 172 -22 266 -58z" />
    <glyph glyph-name="D" unicode="D" horiz-adv-x="870" 
d="M282 685v-655h57c144 0 295 10 295 327c0 318 -151 328 -257 328h-95zM30 0v30h96v655h-96v30h387c236 0 393 -87 393 -358c0 -270 -157 -357 -393 -357h-387z" />
    <glyph glyph-name="E" unicode="E" horiz-adv-x="722" 
d="M30 0v30h96v655h-96v30h618v-226h-30c-22 154 -123 196 -264 196h-72v-305c104 0 165 46 165 145h30v-326h-30c0 118 -61 151 -165 151v-320h105c113 0 240 44 259 211h30v-241h-646z" />
    <glyph glyph-name="F" unicode="F" horiz-adv-x="667" 
d="M649 715v-226h-30c-22 154 -123 196 -264 196h-85v-317c113 0 189 11 189 151h30v-332h-30c0 140 -76 151 -189 151v-308h102v-30h-354v30h96v655h-96v30h631z" />
    <glyph glyph-name="G" unicode="G" horiz-adv-x="852" 
d="M517 323v30h332v-30h-88v-251c-97 -44 -203 -84 -325 -84c-225 0 -376 146 -376 373c0 226 182 366 402 366c90 0 179 -21 264 -50v-182h-30c-17 120 -100 202 -221 202c-201 0 -247 -163 -247 -339c0 -126 12 -340 210 -340c96 0 167 35 167 122v183h-88z" />
    <glyph glyph-name="H" unicode="H" horiz-adv-x="852" 
d="M30 0v30h96v655h-96v30h348v-30h-96v-305h288v305h-96v30h348v-30h-96v-655h96v-30h-348v30h96v320h-288v-320h96v-30h-348z" />
    <glyph glyph-name="I" unicode="I" horiz-adv-x="408" 
d="M30 0v30h96v655h-96v30h348v-30h-96v-655h96v-30h-348z" />
    <glyph glyph-name="J" unicode="J" horiz-adv-x="519" 
d="M141 685v30h348v-30h-96v-513c0 -106 -41 -184 -211 -184c-88 0 -186 25 -186 128c0 33 18 75 73 75c45 0 65 -30 65 -68c0 -54 -41 -48 -41 -76c0 -18 27 -29 52 -29c64 0 92 26 92 98v569h-96z" />
    <glyph glyph-name="K" unicode="K" horiz-adv-x="796" 
d="M30 0v30h96v655h-96v30h348v-30h-96v-293h55l228 293h-104v30h252v-30h-104l-165 -207l280 -448h72v-30h-351v30h90l-197 332h-56v-332h96v-30h-348z" />
    <glyph glyph-name="L" unicode="L" horiz-adv-x="722" 
d="M30 0v30h96v655h-96v30h348v-30h-96v-655h117c113 0 240 44 259 220h30v-250h-658z" />
    <glyph glyph-name="M" unicode="M" horiz-adv-x="981" 
d="M18 0v30h100v655h-100v30h273l196 -518l215 518h261v-30h-100v-655h100v-30h-363v30h107v601h-2l-266 -649h-34l-255 649h-2v-601h111v-30h-241z" />
    <glyph glyph-name="N" unicode="N" horiz-adv-x="833" 
d="M25 0v30h100v655h-100v30h287l364 -472h2v442h-111v30h241v-30h-100v-697l-24 -6l-527 667h-2v-619h110v-30h-240z" />
    <glyph glyph-name="O" unicode="O" horiz-adv-x="870" 
d="M60 358c0 215 146 369 375 369s375 -154 375 -369c0 -216 -146 -370 -375 -370s-375 154 -375 370zM236 358c0 -126 12 -340 199 -340s199 214 199 340c0 125 -12 339 -199 339s-199 -214 -199 -339z" />
    <glyph glyph-name="P" unicode="P" horiz-adv-x="722" 
d="M282 685v-332h87c114 0 147 45 147 166s-33 166 -147 166h-87zM30 0v30h96v655h-96v30h393c88 0 269 1 269 -196c0 -174 -156 -196 -290 -196h-120v-293h113v-30h-365z" />
    <glyph glyph-name="Q" unicode="Q" horiz-adv-x="870" 
d="M688 -184v-36h-102c-228 0 -131 183 -289 229c-143 42 -237 176 -237 349c0 215 146 369 375 369s375 -154 375 -369c0 -216 -146 -370 -375 -370c-10 0 -20 0 -28 1l-2 -2c56 -21 130 -25 156 -88c27 -65 33 -83 98 -83h29zM236 358c0 -126 12 -340 199 -340
s199 214 199 340c0 125 -12 339 -199 339s-199 -214 -199 -339z" />
    <glyph glyph-name="R" unicode="R" horiz-adv-x="758" 
d="M282 684v-304h63c83 0 122 24 122 152s-39 152 -145 152h-40zM395 0h-365v30h96v655h-96v30h332c108 0 267 -3 267 -159c0 -115 -86 -162 -186 -185v-2c138 -11 211 -47 211 -198c0 -71 0 -143 90 -143v-28h-106c-146 0 -146 110 -146 202c0 132 -64 148 -148 148h-62
v-320h113v-30z" />
    <glyph glyph-name="S" unicode="S" horiz-adv-x="593" 
d="M55 35l-9 206h35c5 -102 87 -217 216 -217c79 0 154 32 154 118c0 177 -394 119 -394 370c0 152 125 215 234 215c59 0 111 -10 202 -44l8 -171h-34c-19 98 -91 179 -193 179c-65 0 -113 -44 -113 -109c0 -157 386 -98 386 -376c0 -129 -114 -218 -259 -218
c-79 0 -159 15 -233 47z" />
    <glyph glyph-name="T" unicode="T" horiz-adv-x="758" 
d="M205 0v30h96v655h-37c-147 0 -202 -110 -204 -212h-30v242h698v-242h-30c-2 102 -57 212 -204 212h-37v-655h96v-30h-348z" />
    <glyph glyph-name="U" unicode="U" horiz-adv-x="796" 
d="M18 685v30h361v-30h-109v-507c0 -114 80 -154 179 -154c104 0 201 40 201 174v487h-105v30h239v-30h-98v-481c0 -170 -121 -216 -273 -216c-190 0 -299 33 -299 196v501h-96z" />
    <glyph glyph-name="V" unicode="V" horiz-adv-x="704" 
d="M333 -12l-249 697h-79v30h358v-30h-103l157 -468h2l164 468h-99v30h215v-30h-76l-258 -697h-32z" />
    <glyph glyph-name="W" unicode="W" horiz-adv-x="1130" 
d="M318 -12l-237 697h-72v30h337v-30h-96l148 -458h2l147 458h-96v30h369v-30h-96l148 -458h2l147 458h-96v30h196v-30h-69l-226 -697h-36l-223 673h-2l-210 -673h-37z" />
    <glyph glyph-name="X" unicode="X" horiz-adv-x="741" 
d="M23 0v30h84l193 288l-217 367h-72v30h363v-30h-104l128 -220l147 220h-96v30h226v-30h-90l-169 -251l236 -404h78v-30h-363v30h102l-151 257l-173 -257h96v-30h-218z" />
    <glyph glyph-name="Y" unicode="Y" horiz-adv-x="722" 
d="M176 0v30h107v328l-202 327h-78v30h377v-30h-114l169 -279l164 279h-104v30h224v-30h-78l-202 -327v-328h107v-30h-370z" />
    <glyph glyph-name="Z" unicode="Z" horiz-adv-x="667" 
d="M99 484h-30v231h592l-454 -685h136c120 0 247 50 266 214h30v-244h-633l454 685h-98c-108 0 -249 -43 -263 -201z" />
    <glyph glyph-name="bracketleft" unicode="[" horiz-adv-x="408" 
d="M130 -249v964h254v-36h-128v-892h128v-36h-254z" />
    <glyph glyph-name="backslash" unicode="\" horiz-adv-x="389" 
d="M278 -12l-273 739h106l273 -739h-106z" />
    <glyph glyph-name="bracketright" unicode="]" horiz-adv-x="408" 
d="M278 715v-964h-254v36h128v892h-128v36h254z" />
    <glyph glyph-name="asciicircum" unicode="^" 
d="M55 329l177 365h92l177 -365h-104l-119 261l-120 -261h-103z" />
    <glyph glyph-name="underscore" unicode="_" horiz-adv-x="500" 
d="M0 -125v50h500v-50h-500z" />
    <glyph glyph-name="quoteleft" unicode="&#x2018;" horiz-adv-x="222" 
d="M164 727l13 -28c-60 -27 -107 -88 -103 -157c15 6 32 10 51 10c40 0 77 -30 77 -75c0 -48 -36 -81 -84 -81c-73 0 -98 61 -98 122c0 97 59 169 144 209z" />
    <glyph glyph-name="a" unicode="a" horiz-adv-x="593" 
d="M503 351v-237c0 -64 10 -84 71 -84v-30c-37 -3 -75 -6 -112 -6c-60 0 -90 13 -100 72h-2c-22 -63 -98 -78 -162 -78c-101 0 -153 62 -153 159c0 120 92 130 214 154c23 5 74 19 100 30v62c0 46 -15 79 -88 79c-136 0 -25 -133 -137 -133c-30 0 -55 11 -55 54
c0 87 119 109 190 109c134 0 234 -15 234 -151zM359 215v86l-86 -31c-54 -19 -84 -48 -84 -138c0 -51 18 -96 74 -96c95 0 96 121 96 179z" />
    <glyph glyph-name="b" unicode="b" horiz-adv-x="630" 
d="M213 245c0 -95 7 -215 112 -215c77 0 104 70 104 215c0 119 -5 215 -104 215c-105 0 -112 -134 -112 -215zM72 0v685h-72v30h62c51 0 103 2 154 6v-294h2c28 51 80 75 143 75c147 0 224 -122 224 -257c0 -137 -98 -257 -237 -257c-53 0 -106 23 -130 76h-2v-64h-144z" />
    <glyph glyph-name="c" unicode="c" 
d="M488 160l27 -12c-32 -98 -97 -160 -210 -160c-155 0 -260 100 -260 257c0 148 107 257 260 257c78 0 193 -19 193 -129c0 -37 -23 -56 -59 -56c-58 0 -73 31 -73 84c0 45 -19 71 -61 71c-104 0 -104 -110 -104 -227c0 -93 10 -215 133 -215c85 0 127 59 154 130z" />
    <glyph glyph-name="d" unicode="d" horiz-adv-x="648" 
d="M410 -6v64h-2c-36 -59 -93 -70 -147 -70c-152 0 -216 118 -216 257c0 135 77 257 224 257c63 0 116 -22 139 -72h2v255h-72v30h62c51 0 103 2 154 6v-691h72v-30c-98 -1 -156 -2 -216 -6zM413 245c0 81 -7 215 -112 215c-99 0 -104 -96 -104 -215
c0 -145 27 -215 104 -215c105 0 112 120 112 215z" />
    <glyph glyph-name="e" unicode="e" horiz-adv-x="574" 
d="M537 270h-336v-43c0 -89 16 -197 130 -197c84 0 137 48 170 120l27 -12c-40 -100 -120 -150 -223 -150c-155 0 -260 100 -260 257c0 148 107 257 260 257c130 0 232 -84 232 -232zM201 300h180v46c0 57 -14 126 -82 126c-93 0 -95 -108 -98 -172z" />
    <glyph glyph-name="f" unicode="f" horiz-adv-x="352" 
d="M15 0v30h72v430h-72v30h72v61c0 107 56 176 200 176c46 0 162 -17 162 -108c0 -49 -23 -70 -62 -70c-51 0 -64 28 -64 64c0 40 0 84 -43 84c-44 0 -49 -37 -49 -75v-132h83v-30h-83v-430h83v-30h-299z" />
    <glyph glyph-name="g" unicode="g" horiz-adv-x="610" 
d="M461 -86c0 83 -120 83 -177 83c-86 0 -156 -3 -156 -93c0 -67 70 -94 148 -94c54 0 185 6 185 104zM288 220c67 0 67 83 67 126s0 126 -67 126s-67 -83 -67 -126s0 -126 67 -126zM197 125l123 -4c104 -3 225 -9 225 -145c0 -144 -128 -196 -272 -196
c-54 0 -235 11 -235 125c0 63 61 95 116 102v2c-63 6 -103 52 -103 116c0 55 38 99 88 118c-23 20 -44 57 -44 94c0 114 94 165 199 165c52 0 108 -15 146 -52c18 21 39 52 84 52c39 0 75 -32 75 -76c0 -29 -22 -44 -47 -44c-48 0 -49 33 -49 56c0 11 -6 16 -13 16
c-8 0 -19 -11 -31 -23c14 -27 22 -56 22 -86c0 -108 -101 -155 -196 -155c-45 0 -85 9 -122 35c-36 -16 -52 -28 -52 -50c0 -41 47 -49 86 -50z" />
    <glyph glyph-name="h" unicode="h" horiz-adv-x="667" 
d="M23 0v30h72v655h-72v30h62c51 0 103 2 154 6v-299h2c34 53 89 80 159 80c101 0 172 -54 172 -165v-307h72v-30h-288v30h72v327c0 78 -37 97 -78 97c-56 0 -111 -54 -111 -138v-286h72v-30h-288z" />
    <glyph glyph-name="i" unicode="i" horiz-adv-x="334" 
d="M23 0v30h72v430h-72v30h62c51 0 103 2 154 6v-466h72v-30h-288zM89 649c0 43 35 78 78 78s78 -35 78 -78s-35 -78 -78 -78s-78 35 -78 78z" />
    <glyph glyph-name="j" unicode="j" horiz-adv-x="334" 
d="M0 -220v30c71 0 95 45 95 107v543h-72v30h62c51 0 103 2 154 6v-473c0 -126 -17 -232 -239 -243zM89 649c0 43 35 78 78 78s78 -35 78 -78s-35 -78 -78 -78s-78 35 -78 78z" />
    <glyph glyph-name="k" unicode="k" horiz-adv-x="648" 
d="M23 0v30h72v655h-72v30h62c51 0 103 2 154 6v-455h59l116 194h-78v30h204v-30h-84l-73 -119l210 -311h48v-30h-283v30h66l-139 206h-46v-206h72v-30h-288z" />
    <glyph glyph-name="l" unicode="l" horiz-adv-x="334" 
d="M23 0v30h72v655h-72v30h62c51 0 103 2 154 6v-691h72v-30h-288z" />
    <glyph glyph-name="m" unicode="m" horiz-adv-x="1000" 
d="M23 0v30h72v430h-72v30h62c51 0 103 2 154 6v-76h2c33 59 97 82 159 82c85 0 142 -23 165 -95h2c32 72 105 95 166 95c101 0 172 -36 172 -165v-307h72v-30h-288v30h72v333c0 81 -37 91 -78 91c-64 0 -111 -53 -111 -160v-264h72v-30h-288v30h72v333c0 81 -37 91 -78 91
c-64 0 -111 -53 -111 -160v-264h72v-30h-288z" />
    <glyph glyph-name="n" unicode="n" horiz-adv-x="667" 
d="M23 0v30h72v430h-72v30h62c51 0 103 2 154 6v-74h2c34 53 89 80 159 80c101 0 172 -54 172 -165v-307h72v-30h-288v30h72v327c0 78 -37 97 -78 97c-56 0 -111 -54 -111 -138v-286h72v-30h-288z" />
    <glyph glyph-name="o" unicode="o" horiz-adv-x="610" 
d="M409 245c0 117 0 227 -104 227s-104 -110 -104 -227s0 -227 104 -227s104 110 104 227zM565 245c0 -148 -107 -257 -260 -257c-155 0 -260 100 -260 257c0 148 107 257 260 257s260 -109 260 -257z" />
    <glyph glyph-name="p" unicode="p" horiz-adv-x="648" 
d="M18 -220v30h72v650h-72v30h62c51 0 103 2 154 6v-75h2c28 57 73 81 143 81c147 0 224 -122 224 -257s-77 -257 -224 -257c-66 0 -112 20 -143 65h-2v-243h72v-30h-288zM447 245c0 117 0 221 -100 221c-45 0 -116 -34 -116 -221c0 -189 50 -221 116 -221
c100 0 100 104 100 221z" />
    <glyph glyph-name="q" unicode="q" horiz-adv-x="648" 
d="M201 245c0 -117 0 -221 100 -221c66 0 116 32 116 221c0 187 -71 221 -116 221c-100 0 -100 -104 -100 -221zM342 -220v30h72v243h-2c-31 -45 -77 -65 -143 -65c-147 0 -224 122 -224 257s77 257 224 257c70 0 115 -24 143 -81h2v69h144v-680h72v-30h-288z" />
    <glyph glyph-name="r" unicode="r" horiz-adv-x="463" 
d="M23 0v30h72v430h-72v30h62c51 0 103 2 154 6v-81h2c20 51 70 87 126 87c63 0 96 -44 96 -101c0 -41 -20 -67 -65 -67c-39 0 -61 20 -61 53c0 29 2 32 2 47c0 12 -5 20 -19 20c-58 0 -81 -135 -81 -213v-211h72v-30h-288z" />
    <glyph glyph-name="s" unicode="s" horiz-adv-x="463" 
d="M43 23v162h30c4 -90 63 -167 150 -167c51 0 101 20 101 72c0 115 -274 64 -274 258c0 103 79 154 176 154c75 0 116 -17 155 -32v-129h-30c-7 70 -61 131 -132 131c-40 0 -73 -21 -73 -62c0 -102 274 -55 274 -251c0 -111 -100 -171 -201 -171c-76 0 -139 22 -176 35z
" />
    <glyph glyph-name="t" unicode="t" horiz-adv-x="389" 
d="M95 490v138h144v-138h101v-30h-101v-350c0 -33 0 -80 51 -80c33 0 54 18 69 32l18 -19c-43 -45 -94 -55 -154 -55c-61 0 -128 9 -128 131v341h-72v30h72z" />
    <glyph glyph-name="u" unicode="u" horiz-adv-x="667" 
d="M572 496v-466h72v-30c-98 -1 -156 -2 -216 -6v76h-2c-34 -55 -97 -82 -159 -82c-101 0 -172 36 -172 165v307h-72v30h62c51 0 103 2 154 6v-373c0 -77 37 -87 78 -87c64 0 111 53 111 160v264h-72v30h62c51 0 103 2 154 6z" />
    <glyph glyph-name="v" unicode="v" horiz-adv-x="574" 
d="M274 -12l-212 472h-60v30h291v-30h-68l122 -293l127 293h-68v30h166v-30h-60l-212 -472h-26z" />
    <glyph glyph-name="w" unicode="w" horiz-adv-x="889" 
d="M249 -12l-176 472h-72v30h299v-30h-78l97 -281h2l106 281h-78v30h308v-30h-78l95 -281h2l102 281h-72v30h182v-30h-72l-180 -472h-32l-160 430l-165 -430h-30z" />
    <glyph glyph-name="x" unicode="x" horiz-adv-x="610" 
d="M25 0v30h72l148 186l-152 244h-78v30h310v-30h-66l80 -126l100 126h-66v30h177v-30h-66l-126 -158l172 -272h65v-30h-305v30h72l-97 155l-123 -155h78v-30h-195z" />
    <glyph glyph-name="y" unicode="y" horiz-adv-x="574" 
d="M355 162l111 298h-72v30h176v-30h-66l-193 -497c-32 -83 -70 -183 -182 -183c-58 0 -108 39 -108 102c0 39 19 81 65 81s61 -31 61 -63c0 -25 -7 -32 -7 -48c0 -17 9 -30 28 -30c43 0 87 79 112 156l-204 482h-72v30h303v-30h-72z" />
    <glyph glyph-name="z" unicode="z" horiz-adv-x="500" 
d="M63 321v169h411l-272 -460h57c125 0 175 71 178 160h30v-190h-441l273 460h-70c-83 0 -136 -55 -136 -139h-30z" />
    <glyph glyph-name="braceleft" unicode="{" horiz-adv-x="408" 
d="M127 -93v199c0 72 -14 106 -76 127c62 21 76 55 76 127v199c0 133 65 156 199 156v-12c-55 -18 -73 -61 -73 -138v-188c0 -79 -12 -123 -81 -143v-2c69 -20 81 -64 81 -143v-188c0 -77 18 -120 73 -138v-12c-132 0 -199 23 -199 156z" />
    <glyph glyph-name="bar" unicode="|" horiz-adv-x="222" 
d="M59 -12v739h104v-739h-104z" />
    <glyph glyph-name="braceright" unicode="}" horiz-adv-x="408" 
d="M281 559v-199c0 -72 14 -106 76 -127c-62 -21 -76 -55 -76 -127v-199c0 -133 -65 -156 -199 -156v12c55 18 73 61 73 138v188c0 79 12 123 81 143v2c-69 20 -81 64 -81 143v188c0 77 -18 120 -73 138v12c132 0 199 -23 199 -156z" />
    <glyph glyph-name="asciitilde" unicode="~" 
d="M83 169l-36 80c22 42 58 86 125 86c74 0 162 -68 213 -68c40 0 65 35 88 70l36 -80c-22 -42 -58 -86 -125 -86c-74 0 -162 68 -213 68c-40 0 -65 -35 -88 -70z" />
    <glyph glyph-name="exclamdown" unicode="&#xa1;" horiz-adv-x="296" 
d="M83 -55l49 354h32l49 -354c4 -28 10 -57 10 -86c0 -44 -29 -79 -75 -79s-75 35 -75 79c0 29 6 58 10 86zM229 438c0 -45 -36 -81 -81 -81s-81 36 -81 81s36 81 81 81s81 -36 81 -81z" />
    <glyph glyph-name="cent" unicode="&#xa2;" 
d="M276 42v427c-75 -21 -75 -120 -75 -224c0 -75 7 -170 75 -203zM276 -121v109c-140 13 -231 111 -231 257c0 138 93 242 231 257v96h36v-96c76 0 186 -21 186 -129c0 -37 -23 -56 -59 -56c-58 0 -73 31 -73 84c0 43 -17 69 -54 71v-440c7 -2 14 -2 22 -2
c85 0 127 59 154 130l27 -12c-31 -96 -95 -160 -203 -160v-109h-36z" />
    <glyph glyph-name="sterling" unicode="&#xa3;" 
d="M44 338v42h87c-5 24 -7 43 -7 63c0 133 92 263 217 263c58 0 129 -25 129 -94c0 -32 -18 -54 -52 -54c-78 0 -39 112 -116 112c-42 0 -64 -50 -64 -97c0 -58 29 -140 38 -193h145v-42h-136c2 -16 5 -35 5 -56c0 -76 -43 -143 -89 -202c42 -6 83 -8 125 -8
c100 0 151 66 155 162h36c0 -120 -28 -258 -172 -258c-61 0 -115 28 -168 65c-27 -24 -52 -53 -97 -53c-36 0 -60 29 -60 64c0 39 23 62 59 62c32 0 54 -15 93 -26c9 17 14 40 14 61c0 69 -29 129 -46 189h-96z" />
    <glyph glyph-name="fraction" unicode="&#x2044;" horiz-adv-x="167" 
d="M-166 -28l443 750h56l-443 -750h-56z" />
    <glyph glyph-name="yen" unicode="&#xa5;" 
d="M100 0v30h104v164h-132v42h132v75h-132v42h132l-167 311h-78v30h329v-30h-78l133 -258l137 258h-78v30h195v-30h-78l-171 -311h132v-42h-132v-75h132v-42h-132v-164h104v-30h-352z" />
    <glyph glyph-name="florin" unicode="&#x192;" 
d="M101 355l7 36h99c7 137 85 315 242 315c59 0 109 -32 109 -93c0 -50 -26 -69 -64 -69c-40 0 -56 21 -56 49c0 32 17 44 17 63c0 15 -12 20 -22 20c-52 0 -66 -84 -70 -118l-16 -167h111l-7 -36h-109l-28 -257c-18 -163 -108 -296 -238 -296c-74 0 -113 37 -113 91
c0 35 24 63 61 63c36 0 59 -21 59 -55c0 -20 -7 -31 -7 -48c0 -12 10 -21 23 -21c43 0 58 62 67 156l36 367h-101z" />
    <glyph glyph-name="section" unicode="&#xa7;" 
d="M52 -70c0 38 25 72 66 72c43 0 60 -27 60 -65c0 -20 -10 -41 -10 -59c0 -40 54 -56 89 -56c69 0 130 47 130 120c0 161 -333 198 -333 504c0 160 86 281 242 281c89 0 186 -44 186 -138c0 -37 -28 -62 -65 -62c-40 0 -61 30 -61 62c0 20 9 37 9 54c0 29 -29 48 -70 48
c-56 0 -107 -42 -107 -107c0 -180 316 -180 316 -512c0 -182 -100 -292 -257 -292c-111 0 -195 59 -195 150zM102 484c0 -227 333 -279 333 -493c0 -32 -6 -63 -15 -92l2 -2c21 37 34 79 34 122c0 278 -316 277 -316 518c0 39 9 78 31 111v-1l-2 2
c-47 -42 -67 -104 -67 -165z" />
    <glyph glyph-name="currency" unicode="&#xa4;" 
d="M80 87l-61 61l56 55c-27 37 -46 89 -46 144s19 107 46 144l-56 55l61 61l58 -55c37 27 85 43 140 43s103 -16 140 -43l58 55l61 -61l-56 -55c27 -37 46 -89 46 -144s-19 -107 -46 -144l56 -55l-61 -61l-58 55c-37 -27 -85 -43 -140 -43s-103 16 -140 43zM133 347
c0 -84 65 -152 145 -152s145 68 145 152s-65 152 -145 152s-145 -68 -145 -152z" />
    <glyph glyph-name="quotesingle" unicode="'" horiz-adv-x="222" 
d="M160 625l-21 -187c-2 -23 -8 -42 -28 -42s-26 19 -28 42l-21 187c-3 23 -3 30 -3 43c0 24 8 59 52 59s52 -35 52 -59c0 -13 0 -20 -3 -43z" />
    <glyph glyph-name="quotedblleft" unicode="&#x201c;" horiz-adv-x="481" 
d="M410 727l13 -28c-60 -27 -107 -88 -103 -157c15 6 32 10 51 10c40 0 77 -30 77 -75c0 -48 -36 -81 -84 -81c-73 0 -98 61 -98 122c0 97 59 169 144 209zM177 727l13 -28c-60 -27 -107 -88 -103 -157c15 6 32 10 51 10c40 0 77 -30 77 -75c0 -48 -36 -81 -84 -81
c-73 0 -98 61 -98 122c0 97 59 169 144 209z" />
    <glyph glyph-name="guillemotleft" unicode="&#xab;" horiz-adv-x="426" 
d="M21 218v36l184 154l23 -19l-87 -153l87 -153l-23 -19zM198 218v36l184 154l23 -19l-87 -153l87 -153l-23 -19z" />
    <glyph glyph-name="guilsinglleft" unicode="&#x2039;" horiz-adv-x="259" 
d="M26 218v36l184 154l23 -19l-87 -153l87 -153l-23 -19z" />
    <glyph glyph-name="guilsinglright" unicode="&#x203a;" horiz-adv-x="259" 
d="M233 254v-36l-184 -154l-23 19l87 153l-87 153l23 19z" />
    <glyph glyph-name="fi" unicode="&#xfb01;" horiz-adv-x="648" 
d="M15 0v30h72v430h-72v30h72v52c0 134 100 185 261 185c66 0 209 -23 209 -109c0 -34 -12 -71 -71 -71c-41 0 -66 27 -66 67c0 25 15 48 35 61c-31 15 -64 22 -98 22c-107 0 -126 -54 -126 -149v-58h114c98 1 156 2 216 6v-466h72v-30h-288v30h72v430h-186v-430h83v-30
h-299z" />
    <glyph glyph-name="fl" unicode="&#xfb02;" horiz-adv-x="648" 
d="M561 721v-691h72v-30h-288v30h72v522c-33 11 -47 33 -47 56c0 31 9 33 9 53s-27 36 -63 36c-63 0 -85 -45 -85 -101v-106h83v-30h-83v-430h83v-30h-299v30h72v430h-72v30h72v58c0 112 70 179 208 179c40 0 78 -12 115 -12c39 0 97 2 151 6z" />
    <glyph glyph-name="endash" unicode="&#x2013;" horiz-adv-x="500" 
d="M0 191v90h500v-90h-500z" />
    <glyph glyph-name="dagger" unicode="&#x2020;" 
d="M194 -60c0 99 60 320 60 472c-22 0 -50 -12 -77 -24s-53 -24 -73 -24c-41 0 -57 36 -57 69c0 34 21 69 58 69c22 0 46 -12 71 -24s51 -24 78 -24c0 64 -54 137 -54 195c0 46 34 78 78 78s78 -32 78 -78c0 -58 -54 -131 -54 -195c27 0 53 12 78 24s49 24 71 24
c37 0 58 -35 58 -69c0 -33 -16 -69 -57 -69c-20 0 -46 12 -73 24s-54 24 -77 24c0 -152 60 -373 60 -472c0 -51 -32 -87 -84 -87s-84 36 -84 87z" />
    <glyph glyph-name="daggerdbl" unicode="&#x2021;" 
d="M278 727c44 0 75 -30 75 -75c0 -59 -51 -118 -51 -187c53 0 102 48 148 48c37 0 59 -35 59 -69c0 -33 -17 -69 -58 -69c-47 0 -96 48 -149 48c0 -57 18 -83 18 -133s-18 -76 -18 -125c53 0 102 48 148 48c37 0 59 -35 59 -69c0 -33 -17 -69 -58 -69c-47 0 -96 48 -149 48
c0 -77 54 -136 54 -195c0 -45 -31 -75 -78 -75s-78 30 -78 75c0 59 54 118 54 195c-53 0 -102 -48 -149 -48c-41 0 -58 36 -58 69c0 34 22 69 59 69c46 0 95 -48 148 -48c0 49 -18 75 -18 125s18 76 18 133c-53 0 -102 -48 -149 -48c-41 0 -58 36 -58 69c0 34 22 69 59 69
c46 0 95 -48 148 -48c0 69 -51 128 -51 187c0 45 31 75 75 75z" />
    <glyph glyph-name="periodcentered" unicode="&#xb7;" horiz-adv-x="278" 
d="M55 281c0 46 38 84 84 84s84 -38 84 -84s-38 -84 -84 -84s-84 38 -84 84z" />
    <glyph glyph-name="paragraph" unicode="&#xb6;" horiz-adv-x="620" 
d="M485 632v-757c0 -46 7 -51 79 -59v-24h-183v893h-74v-893h-183v24c72 8 79 13 79 59v429c-106 0 -167 87 -167 213c0 139 59 198 215 198h313v-24c-72 -8 -79 -13 -79 -59z" />
    <glyph glyph-name="bullet" unicode="&#x2022;" horiz-adv-x="500" 
d="M71 358c0 98 80 179 179 179s180 -81 179 -179c1 -99 -80 -179 -179 -179s-179 80 -179 179z" />
    <glyph glyph-name="quotesinglbase" unicode="&#x201a;" horiz-adv-x="222" 
d="M58 -181l-13 28c60 27 107 88 103 157c-15 -6 -32 -10 -51 -10c-40 0 -77 30 -77 75c0 48 36 81 84 81c73 0 98 -61 98 -122c0 -97 -59 -169 -144 -209z" />
    <glyph glyph-name="quotedblbase" unicode="&#x201e;" horiz-adv-x="481" 
d="M71 -181l-13 28c60 27 107 88 103 157c-15 -6 -32 -10 -51 -10c-40 0 -77 30 -77 75c0 48 36 81 84 81c73 0 98 -61 98 -122c0 -97 -59 -169 -144 -209zM304 -181l-13 28c60 27 107 88 103 157c-15 -6 -32 -10 -51 -10c-40 0 -77 30 -77 75c0 48 36 81 84 81
c73 0 98 -61 98 -122c0 -97 -59 -169 -144 -209z" />
    <glyph glyph-name="quotedblright" unicode="&#x201d;" horiz-adv-x="481" 
d="M71 396l-13 28c60 27 107 88 103 157c-15 -6 -32 -10 -51 -10c-40 0 -77 30 -77 75c0 48 36 81 84 81c73 0 98 -61 98 -122c0 -97 -59 -169 -144 -209zM304 396l-13 28c60 27 107 88 103 157c-15 -6 -32 -10 -51 -10c-40 0 -77 30 -77 75c0 48 36 81 84 81
c73 0 98 -61 98 -122c0 -97 -59 -169 -144 -209z" />
    <glyph glyph-name="guillemotright" unicode="&#xbb;" horiz-adv-x="426" 
d="M405 254v-36l-184 -154l-23 19l87 153l-87 153l23 19zM228 254v-36l-184 -154l-23 19l87 153l-87 153l23 19z" />
    <glyph glyph-name="ellipsis" unicode="&#x2026;" horiz-adv-x="1000" 
d="M86 69c0 45 36 81 81 81s81 -36 81 -81s-36 -81 -81 -81s-81 36 -81 81zM419 69c0 45 36 81 81 81s81 -36 81 -81s-36 -81 -81 -81s-81 36 -81 81zM752 69c0 45 36 81 81 81s81 -36 81 -81s-36 -81 -81 -81s-81 36 -81 81z" />
    <glyph glyph-name="perthousand" unicode="&#x2030;" horiz-adv-x="1000" 
d="M10 540c0 94 56 166 154 166s154 -72 154 -166s-56 -166 -154 -166s-154 72 -154 166zM106 540c0 -51 1 -136 58 -136s58 85 58 136s-1 136 -58 136s-58 -85 -58 -136zM430 154c0 -51 1 -136 58 -136s58 85 58 136s-1 136 -58 136s-58 -85 -58 -136zM334 154
c0 94 56 166 154 166s154 -72 154 -166s-56 -166 -154 -166s-154 72 -154 166zM778 154c0 -51 1 -136 58 -136s58 85 58 136s-1 136 -58 136s-58 -85 -58 -136zM682 154c0 94 56 166 154 166s154 -72 154 -166s-56 -166 -154 -166s-154 72 -154 166zM77 -28l443 750h56
l-443 -750h-56z" />
    <glyph glyph-name="questiondown" unicode="&#xbf;" horiz-adv-x="481" 
d="M280 299v-34c0 -148 -118 -81 -118 -289c0 -70 0 -166 86 -166c27 0 51 13 51 40c0 18 -10 44 -10 66c0 38 22 60 60 60c39 0 60 -31 60 -71c0 -84 -99 -125 -170 -125c-136 0 -215 61 -215 201c0 213 220 157 220 275v43h36zM339 438c0 -45 -36 -81 -81 -81
s-81 36 -81 81s36 81 81 81s81 -36 81 -81z" />
    <glyph glyph-name="grave" unicode="`" horiz-adv-x="278" 
d="M185 555h-56l-153 92c-24 15 -29 31 -29 46c0 22 16 44 48 44c27 0 43 -17 73 -50z" />
    <glyph glyph-name="acute" unicode="&#xb4;" horiz-adv-x="278" 
d="M149 555h-56l117 132c30 33 46 50 73 50c32 0 48 -22 48 -44c0 -15 -5 -31 -29 -46z" />
    <glyph glyph-name="circumflex" unicode="&#x2c6;" horiz-adv-x="278" 
d="M-29 555l122 176h92l122 -176h-56l-112 98l-112 -98h-56z" />
    <glyph glyph-name="tilde" unicode="&#x2dc;" horiz-adv-x="278" 
d="M-1 581h-43c15 61 41 125 115 125c56 0 123 -48 162 -48c26 0 41 25 46 47h43c-16 -60 -42 -125 -116 -125c-56 0 -123 48 -162 48c-26 0 -41 -24 -45 -47z" />
    <glyph glyph-name="macron" unicode="&#xaf;" horiz-adv-x="278" 
d="M-8 593v72h294v-72h-294z" />
    <glyph glyph-name="breve" unicode="&#x2d8;" horiz-adv-x="278" 
d="M247 721h43c-5 -95 -51 -164 -151 -164s-146 69 -151 164h43c11 -57 47 -86 108 -86s97 29 108 86z" />
    <glyph glyph-name="dotaccent" unicode="&#x2d9;" horiz-adv-x="278" 
d="M73 629c0 36 30 66 66 66s66 -30 66 -66s-30 -66 -66 -66s-66 30 -66 66z" />
    <glyph glyph-name="dieresis" unicode="&#xa8;" horiz-adv-x="278" 
d="M-32 628c0 36 30 66 66 66s66 -30 66 -66s-30 -66 -66 -66s-66 30 -66 66zM178 628c0 36 30 66 66 66s66 -30 66 -66s-30 -66 -66 -66s-66 30 -66 66z" />
    <glyph glyph-name="ring" unicode="&#x2da;" horiz-adv-x="278" 
d="M33 644c0 59 47 106 106 106s106 -47 106 -106s-47 -106 -106 -106s-106 47 -106 106zM197 644c0 32 -26 58 -58 58s-58 -26 -58 -58s26 -58 58 -58s58 26 58 58z" />
    <glyph glyph-name="cedilla" unicode="&#xb8;" horiz-adv-x="278" 
d="M41 -202l16 37c21 -8 42 -13 64 -13c37 0 53 14 53 40c0 24 -23 36 -44 36c-9 0 -20 -1 -30 -4l-11 8l43 98h42l-28 -65c10 3 22 5 38 5c43 0 86 -17 86 -70c0 -75 -81 -90 -142 -90c-24 0 -61 8 -87 18z" />
    <glyph glyph-name="hungarumlaut" unicode="&#x2dd;" horiz-adv-x="278" 
d="M45 555h-56l117 132c30 33 46 50 73 50c32 0 48 -22 48 -44c0 -15 -5 -31 -29 -46zM253 555h-56l117 132c30 33 46 50 73 50c32 0 48 -22 48 -44c0 -15 -5 -31 -29 -46z" />
    <glyph glyph-name="ogonek" unicode="&#x2db;" horiz-adv-x="278" 
d="M202 -142l30 -8c-32 -49 -63 -70 -123 -70c-22 0 -92 7 -92 85c0 57 52 105 121 135h53c-70 -60 -84 -96 -84 -131c0 -29 15 -47 40 -47c27 0 44 19 55 36z" />
    <glyph glyph-name="caron" unicode="&#x2c7;" horiz-adv-x="278" 
d="M93 555l-122 176h56l112 -98l112 98h56l-122 -176h-92z" />
    <glyph glyph-name="emdash" unicode="&#x2014;" horiz-adv-x="1000" 
d="M0 191v90h1000v-90h-1000z" />
    <glyph glyph-name="AE" unicode="&#xc6;" horiz-adv-x="1056" 
d="M4 0v30h84l324 655h-84v30h640v-226h-30c-22 154 -123 196 -264 196h-72v-305c104 0 165 46 165 145h30v-326h-30c0 118 -61 151 -165 151v-320h105c113 0 240 44 259 211h30v-241h-646v30h96v232h-204l-112 -232h96v-30h-222zM446 292v387h-2l-188 -387h190z" />
    <glyph glyph-name="ordfeminine" unicode="&#xaa;" horiz-adv-x="385" 
d="M332 616v-137c0 -38 6 -51 46 -51v-24c-24 -4 -49 -6 -77 -6c-45 0 -64 10 -71 47h-2c-9 -38 -59 -47 -100 -47c-72 0 -106 37 -106 95c0 47 25 65 63 76s89 15 143 35v31c0 27 -9 47 -53 47c-84 0 -12 -74 -89 -74c-25 0 -42 7 -42 33c0 52 77 65 130 65
c93 0 158 -9 158 -90zM228 528v52l-48 -19c-34 -13 -54 -29 -54 -69c0 -31 12 -58 44 -58c57 0 58 73 58 94z" />
    <glyph glyph-name="Lslash" unicode="&#x141;" horiz-adv-x="722" 
d="M30 0v30h96v229l-96 -67v77l96 67v349h-96v30h348v-30h-96v-240l188 132v-77l-188 -132v-338h117c113 0 240 44 259 220h30v-250h-658z" />
    <glyph glyph-name="Oslash" unicode="&#xd8;" horiz-adv-x="870" 
d="M249 201l360 357c-24 77 -73 139 -174 139c-187 0 -199 -214 -199 -339c0 -46 2 -103 13 -157zM621 514l-360 -357c24 -77 73 -139 174 -139c187 0 199 214 199 340c0 45 -2 102 -13 156zM63 17l88 87c-59 66 -91 153 -91 254c0 215 146 369 375 369
c105 0 192 -32 256 -88l89 88l27 -29l-88 -87c59 -64 91 -152 91 -253c0 -216 -146 -370 -375 -370c-106 0 -194 33 -256 88l-89 -88z" />
    <glyph glyph-name="OE" unicode="&#x152;" horiz-adv-x="1167" 
d="M727 685v-305c104 0 165 46 165 145h30v-326h-30c0 118 -61 151 -165 151v-320h105c113 0 240 44 259 211h30v-241h-442c-92 0 -174 -12 -244 -12c-229 0 -375 154 -375 370c0 215 146 369 375 369c70 0 152 -12 244 -12h414v-226h-30c-22 154 -123 196 -264 196h-72z
M571 209v297c0 106 -8 191 -136 191c-187 0 -199 -214 -199 -339c0 -126 12 -340 199 -340c128 0 136 85 136 191z" />
    <glyph glyph-name="ordmasculine" unicode="&#xba;" horiz-adv-x="398" 
d="M262 552c0 64 0 130 -63 130s-63 -66 -63 -130s0 -130 63 -130s63 66 63 130zM376 552c0 -89 -69 -154 -177 -154s-177 60 -177 154c0 89 70 154 177 154c108 0 177 -65 177 -154z" />
    <glyph glyph-name="ae" unicode="&#xe6;" horiz-adv-x="870" 
d="M492 300h185v46c0 57 -14 126 -82 126c-98 0 -100 -108 -103 -172zM45 147c0 156 150 118 303 184v62c0 46 -20 79 -77 79c-136 0 -25 -133 -137 -133c-30 0 -55 11 -55 54c0 87 119 109 195 109c46 0 116 -9 150 -63c43 41 110 63 177 63c130 0 232 -84 232 -232h-341
v-43c0 -89 16 -197 135 -197c84 0 137 48 170 120l27 -12c-40 -100 -120 -150 -223 -150c-96 0 -174 26 -224 114c-23 -77 -86 -114 -174 -114c-106 0 -158 62 -158 159zM348 215v86l-81 -31c-51 -19 -78 -48 -78 -138c0 -51 16 -96 69 -96c89 0 90 121 90 179z" />
    <glyph glyph-name="dotlessi" unicode="&#x131;" horiz-adv-x="334" 
d="M23 0v30h72v430h-72v30h62c51 0 103 2 154 6v-466h72v-30h-288z" />
    <glyph glyph-name="lslash" unicode="&#x142;" horiz-adv-x="334" 
d="M23 0v30h72v290l-72 -52v56l72 52v309h-72v30h62c51 0 103 2 154 6v-242l72 51v-56l-72 -51v-393h72v-30h-288z" />
    <glyph glyph-name="oslash" unicode="&#xf8;" horiz-adv-x="610" 
d="M33 14l67 64c-35 42 -55 99 -55 167c0 148 107 257 260 257c70 0 131 -23 176 -62l68 65l28 -30l-68 -64c36 -44 56 -101 56 -166c0 -148 -107 -257 -260 -257c-71 0 -132 21 -177 60l-67 -63zM408 315l-202 -192c9 -61 33 -105 99 -105c104 0 104 110 104 227
c0 24 0 48 -1 70zM202 175l202 192c-10 62 -34 105 -99 105c-104 0 -104 -110 -104 -227c0 -24 0 -47 1 -70z" />
    <glyph glyph-name="oe" unicode="&#x153;" horiz-adv-x="907" 
d="M543 300h171v46c0 57 -14 126 -76 126c-90 0 -92 -108 -95 -172zM870 270h-327v-43c0 -89 16 -197 128 -197c82 0 134 48 167 120l26 -12c-39 -100 -118 -150 -219 -150c-79 0 -137 22 -176 71c-36 -44 -92 -71 -164 -71c-155 0 -260 100 -260 257c0 148 107 257 260 257
c55 0 120 -19 165 -67c49 48 104 67 172 67c128 0 228 -84 228 -232zM201 245c0 -117 0 -227 99 -227s99 110 99 227s0 227 -99 227s-99 -110 -99 -227z" />
    <glyph glyph-name="germandbls" unicode="&#xdf;" horiz-adv-x="630" 
d="M23 0v30h72v485c0 133 87 212 248 212c98 0 216 -24 216 -145c0 -98 -99 -138 -183 -142v-2c150 -14 210 -68 210 -222c0 -110 -41 -228 -170 -228c-94 0 -120 60 -120 144h30c1 -32 2 -96 53 -96s57 44 57 123v54c0 132 0 207 -126 207v30c75 0 99 33 99 110
c0 70 -10 137 -89 137c-62 0 -81 -54 -81 -106v-561h48v-30h-264z" />
    <glyph glyph-name="Aacute" unicode="&#xc1;" horiz-adv-x="741" 
d="M22 0v30h77l248 685h36l253 -685h83v-30h-358v30h101l-71 206h-183l-71 -206h99v-30h-214zM380 266l-80 231h-2l-80 -231h162zM345 762h-56l117 132c30 33 46 50 73 50c32 0 48 -22 48 -44c0 -15 -5 -31 -29 -46z" />
    <glyph glyph-name="Acircumflex" unicode="&#xc2;" horiz-adv-x="741" 
d="M22 0v30h77l248 685h36l253 -685h83v-30h-358v30h101l-71 206h-183l-71 -206h99v-30h-214zM380 266l-80 231h-2l-80 -231h162zM203 762l122 176h92l122 -176h-56l-112 98l-112 -98h-56z" />
    <glyph glyph-name="Adieresis" unicode="&#xc4;" horiz-adv-x="741" 
d="M22 0v30h77l248 685h36l253 -685h83v-30h-358v30h101l-71 206h-183l-71 -206h99v-30h-214zM380 266l-80 231h-2l-80 -231h162zM200 835c0 36 30 66 66 66s66 -30 66 -66s-30 -66 -66 -66s-66 30 -66 66zM410 835c0 36 30 66 66 66s66 -30 66 -66s-30 -66 -66 -66
s-66 30 -66 66z" />
    <glyph glyph-name="Agrave" unicode="&#xc0;" horiz-adv-x="741" 
d="M22 0v30h77l248 685h36l253 -685h83v-30h-358v30h101l-71 206h-183l-71 -206h99v-30h-214zM380 266l-80 231h-2l-80 -231h162zM444 762h-56l-153 92c-24 15 -29 31 -29 46c0 22 16 44 48 44c27 0 43 -17 73 -50z" />
    <glyph glyph-name="Aring" unicode="&#xc5;" horiz-adv-x="741" 
d="M22 0v30h77l248 685h36l253 -685h83v-30h-358v30h101l-71 206h-183l-71 -206h99v-30h-214zM380 266l-80 231h-2l-80 -231h162zM265 842c0 59 47 106 106 106s106 -47 106 -106s-47 -106 -106 -106s-106 47 -106 106zM429 842c0 32 -26 58 -58 58s-58 -26 -58 -58
s26 -58 58 -58s58 26 58 58z" />
    <glyph glyph-name="Atilde" unicode="&#xc3;" horiz-adv-x="741" 
d="M22 0v30h77l248 685h36l253 -685h83v-30h-358v30h101l-71 206h-183l-71 -206h99v-30h-214zM380 266l-80 231h-2l-80 -231h162zM231 788h-43c15 61 41 125 115 125c56 0 123 -48 162 -48c26 0 41 25 46 47h43c-16 -60 -42 -125 -116 -125c-56 0 -123 48 -162 48
c-26 0 -41 -24 -45 -47z" />
    <glyph glyph-name="Ccedilla" unicode="&#xc7;" horiz-adv-x="758" 
d="M701 669v-203h-30c-9 124 -109 231 -225 231c-196 0 -218 -201 -218 -339c0 -126 12 -340 211 -340c118 0 224 109 237 230h30v-202c-75 -31 -183 -58 -271 -58c-229 0 -375 154 -375 370c0 215 146 369 375 369c88 0 172 -22 266 -58zM335 -202l16 37
c21 -8 42 -13 64 -13c37 0 53 14 53 40c0 24 -23 36 -44 36c-9 0 -20 -1 -30 -4l-11 8l43 98h42l-28 -65c10 3 22 5 38 5c43 0 86 -17 86 -70c0 -75 -81 -90 -142 -90c-24 0 -61 8 -87 18z" />
    <glyph glyph-name="Eacute" unicode="&#xc9;" horiz-adv-x="722" 
d="M30 0v30h96v655h-96v30h618v-226h-30c-22 154 -123 196 -264 196h-72v-305c104 0 165 46 165 145h30v-326h-30c0 118 -61 151 -165 151v-320h105c113 0 240 44 259 211h30v-241h-646zM344 771h-56l117 132c30 33 46 50 73 50c32 0 48 -22 48 -44c0 -15 -5 -31 -29 -46z
" />
    <glyph glyph-name="Ecircumflex" unicode="&#xca;" horiz-adv-x="722" 
d="M30 0v30h96v655h-96v30h618v-226h-30c-22 154 -123 196 -264 196h-72v-305c104 0 165 46 165 145h30v-326h-30c0 118 -61 151 -165 151v-320h105c113 0 240 44 259 211h30v-241h-646zM193 771l122 176h92l122 -176h-56l-112 98l-112 -98h-56z" />
    <glyph glyph-name="Edieresis" unicode="&#xcb;" horiz-adv-x="722" 
d="M30 0v30h96v655h-96v30h618v-226h-30c-22 154 -123 196 -264 196h-72v-305c104 0 165 46 165 145h30v-326h-30c0 118 -61 151 -165 151v-320h105c113 0 240 44 259 211h30v-241h-646zM190 844c0 36 30 66 66 66s66 -30 66 -66s-30 -66 -66 -66s-66 30 -66 66zM400 844
c0 36 30 66 66 66s66 -30 66 -66s-30 -66 -66 -66s-66 30 -66 66z" />
    <glyph glyph-name="Egrave" unicode="&#xc8;" horiz-adv-x="722" 
d="M30 0v30h96v655h-96v30h618v-226h-30c-22 154 -123 196 -264 196h-72v-305c104 0 165 46 165 145h30v-326h-30c0 118 -61 151 -165 151v-320h105c113 0 240 44 259 211h30v-241h-646zM443 771h-56l-153 92c-24 15 -29 31 -29 46c0 22 16 44 48 44c27 0 43 -17 73 -50z
" />
    <glyph glyph-name="Eth" unicode="&#xd0;" horiz-adv-x="870" 
d="M30 0v30h96v318h-96v42h96v295h-96v30h387c236 0 393 -87 393 -358c0 -270 -157 -357 -393 -357h-387zM282 348v-318h57c144 0 295 10 295 327c0 318 -151 328 -257 328h-95v-295h160v-42h-160z" />
    <glyph glyph-name="Iacute" unicode="&#xcd;" horiz-adv-x="408" 
d="M30 0v30h96v655h-96v30h348v-30h-96v-655h96v-30h-348zM187 762h-56l117 132c30 33 46 50 73 50c32 0 48 -22 48 -44c0 -15 -5 -31 -29 -46z" />
    <glyph glyph-name="Icircumflex" unicode="&#xce;" horiz-adv-x="408" 
d="M30 0v30h96v655h-96v30h348v-30h-96v-655h96v-30h-348zM36 762l122 176h92l122 -176h-56l-112 98l-112 -98h-56z" />
    <glyph glyph-name="Idieresis" unicode="&#xcf;" horiz-adv-x="408" 
d="M30 0v30h96v655h-96v30h348v-30h-96v-655h96v-30h-348zM33 835c0 36 30 66 66 66s66 -30 66 -66s-30 -66 -66 -66s-66 30 -66 66zM243 835c0 36 30 66 66 66s66 -30 66 -66s-30 -66 -66 -66s-66 30 -66 66z" />
    <glyph glyph-name="Igrave" unicode="&#xcc;" horiz-adv-x="408" 
d="M30 0v30h96v655h-96v30h348v-30h-96v-655h96v-30h-348zM286 762h-56l-153 92c-24 15 -29 31 -29 46c0 22 16 44 48 44c27 0 43 -17 73 -50z" />
    <glyph glyph-name="Ntilde" unicode="&#xd1;" horiz-adv-x="833" 
d="M25 0v30h100v655h-100v30h287l364 -472h2v442h-111v30h241v-30h-100v-697l-24 -6l-527 667h-2v-619h110v-30h-240zM277 796h-43c15 61 41 125 115 125c56 0 123 -48 162 -48c26 0 41 25 46 47h43c-16 -60 -42 -125 -116 -125c-56 0 -123 48 -162 48
c-26 0 -41 -24 -45 -47z" />
    <glyph glyph-name="Oacute" unicode="&#xd3;" horiz-adv-x="870" 
d="M60 358c0 215 146 369 375 369s375 -154 375 -369c0 -216 -146 -370 -375 -370s-375 154 -375 370zM236 358c0 -126 12 -340 199 -340s199 214 199 340c0 125 -12 339 -199 339s-199 -214 -199 -339zM445 755h-56l117 132c30 33 46 50 73 50c32 0 48 -22 48 -44
c0 -15 -5 -31 -29 -46z" />
    <glyph glyph-name="Ocircumflex" unicode="&#xd4;" horiz-adv-x="870" 
d="M60 358c0 215 146 369 375 369s375 -154 375 -369c0 -216 -146 -370 -375 -370s-375 154 -375 370zM236 358c0 -126 12 -340 199 -340s199 214 199 340c0 125 -12 339 -199 339s-199 -214 -199 -339zM267 755l122 176h92l122 -176h-56l-112 98l-112 -98h-56z" />
    <glyph glyph-name="Odieresis" unicode="&#xd6;" horiz-adv-x="870" 
d="M60 358c0 215 146 369 375 369s375 -154 375 -369c0 -216 -146 -370 -375 -370s-375 154 -375 370zM236 358c0 -126 12 -340 199 -340s199 214 199 340c0 125 -12 339 -199 339s-199 -214 -199 -339zM264 828c0 36 30 66 66 66s66 -30 66 -66s-30 -66 -66 -66
s-66 30 -66 66zM474 828c0 36 30 66 66 66s66 -30 66 -66s-30 -66 -66 -66s-66 30 -66 66z" />
    <glyph glyph-name="Ograve" unicode="&#xd2;" horiz-adv-x="870" 
d="M60 358c0 215 146 369 375 369s375 -154 375 -369c0 -216 -146 -370 -375 -370s-375 154 -375 370zM236 358c0 -126 12 -340 199 -340s199 214 199 340c0 125 -12 339 -199 339s-199 -214 -199 -339zM535 755h-56l-153 92c-24 15 -29 31 -29 46c0 22 16 44 48 44
c27 0 43 -17 73 -50z" />
    <glyph glyph-name="Otilde" unicode="&#xd5;" horiz-adv-x="870" 
d="M60 358c0 215 146 369 375 369s375 -154 375 -369c0 -216 -146 -370 -375 -370s-375 154 -375 370zM236 358c0 -126 12 -340 199 -340s199 214 199 340c0 125 -12 339 -199 339s-199 -214 -199 -339zM295 781h-43c15 61 41 125 115 125c56 0 123 -48 162 -48
c26 0 41 25 46 47h43c-16 -60 -42 -125 -116 -125c-56 0 -123 48 -162 48c-26 0 -41 -24 -45 -47z" />
    <glyph glyph-name="Scaron" unicode="&#x160;" horiz-adv-x="593" 
d="M55 35l-9 206h35c5 -102 87 -217 216 -217c79 0 154 32 154 118c0 177 -394 119 -394 370c0 152 125 215 234 215c59 0 111 -10 202 -44l8 -171h-34c-19 98 -91 179 -193 179c-65 0 -113 -44 -113 -109c0 -157 386 -98 386 -376c0 -129 -114 -218 -259 -218
c-79 0 -159 15 -233 47zM251 780l-122 176h56l112 -98l112 98h56l-122 -176h-92z" />
    <glyph glyph-name="Thorn" unicode="&#xde;" horiz-adv-x="722" 
d="M282 570v-332h87c114 0 147 45 147 166s-33 166 -147 166h-87zM30 0v30h96v655h-96v30h348v-30h-96v-85h141c88 0 269 1 269 -196c0 -174 -156 -196 -290 -196h-120v-178h96v-30h-348z" />
    <glyph glyph-name="Uacute" unicode="&#xda;" horiz-adv-x="796" 
d="M18 685v30h361v-30h-109v-507c0 -114 80 -154 179 -154c104 0 201 40 201 174v487h-105v30h239v-30h-98v-481c0 -170 -121 -216 -273 -216c-190 0 -299 33 -299 196v501h-96zM408 771h-56l117 132c30 33 46 50 73 50c32 0 48 -22 48 -44c0 -15 -5 -31 -29 -46z" />
    <glyph glyph-name="Ucircumflex" unicode="&#xdb;" horiz-adv-x="796" 
d="M18 685v30h361v-30h-109v-507c0 -114 80 -154 179 -154c104 0 201 40 201 174v487h-105v30h239v-30h-98v-481c0 -170 -121 -216 -273 -216c-190 0 -299 33 -299 196v501h-96zM230 771l122 176h92l122 -176h-56l-112 98l-112 -98h-56z" />
    <glyph glyph-name="Udieresis" unicode="&#xdc;" horiz-adv-x="796" 
d="M18 685v30h361v-30h-109v-507c0 -114 80 -154 179 -154c104 0 201 40 201 174v487h-105v30h239v-30h-98v-481c0 -170 -121 -216 -273 -216c-190 0 -299 33 -299 196v501h-96zM245 844c0 36 30 66 66 66s66 -30 66 -66s-30 -66 -66 -66s-66 30 -66 66zM455 844
c0 36 30 66 66 66s66 -30 66 -66s-30 -66 -66 -66s-66 30 -66 66z" />
    <glyph glyph-name="Ugrave" unicode="&#xd9;" horiz-adv-x="796" 
d="M18 685v30h361v-30h-109v-507c0 -114 80 -154 179 -154c104 0 201 40 201 174v487h-105v30h239v-30h-98v-481c0 -170 -121 -216 -273 -216c-190 0 -299 33 -299 196v501h-96zM498 771h-56l-153 92c-24 15 -29 31 -29 46c0 22 16 44 48 44c27 0 43 -17 73 -50z" />
    <glyph glyph-name="Yacute" unicode="&#xdd;" horiz-adv-x="722" 
d="M176 0v30h107v328l-202 327h-78v30h377v-30h-114l169 -279l164 279h-104v30h224v-30h-78l-202 -327v-328h107v-30h-370zM371 780h-56l117 132c30 33 46 50 73 50c32 0 48 -22 48 -44c0 -15 -5 -31 -29 -46z" />
    <glyph glyph-name="Ydieresis" unicode="&#x178;" horiz-adv-x="722" 
d="M176 0v30h107v328l-202 327h-78v30h377v-30h-114l169 -279l164 279h-104v30h224v-30h-78l-202 -327v-328h107v-30h-370zM226 853c0 36 30 66 66 66s66 -30 66 -66s-30 -66 -66 -66s-66 30 -66 66zM436 853c0 36 30 66 66 66s66 -30 66 -66s-30 -66 -66 -66s-66 30 -66 66
z" />
    <glyph glyph-name="Zcaron" unicode="&#x17d;" horiz-adv-x="667" 
d="M99 484h-30v231h592l-454 -685h136c120 0 247 50 266 214h30v-244h-633l454 685h-98c-108 0 -249 -43 -263 -201zM288 780l-122 176h56l112 -98l112 98h56l-122 -176h-92z" />
    <glyph glyph-name="aacute" unicode="&#xe1;" horiz-adv-x="593" 
d="M503 351v-237c0 -64 10 -84 71 -84v-30c-37 -3 -75 -6 -112 -6c-60 0 -90 13 -100 72h-2c-22 -63 -98 -78 -162 -78c-101 0 -153 62 -153 159c0 120 92 130 214 154c23 5 74 19 100 30v62c0 46 -15 79 -88 79c-136 0 -25 -133 -137 -133c-30 0 -55 11 -55 54
c0 87 119 109 190 109c134 0 234 -15 234 -151zM359 215v86l-86 -31c-54 -19 -84 -48 -84 -138c0 -51 18 -96 74 -96c95 0 96 121 96 179zM289 555h-56l117 132c30 33 46 50 73 50c32 0 48 -22 48 -44c0 -15 -5 -31 -29 -46z" />
    <glyph glyph-name="acircumflex" unicode="&#xe2;" horiz-adv-x="593" 
d="M503 351v-237c0 -64 10 -84 71 -84v-30c-37 -3 -75 -6 -112 -6c-60 0 -90 13 -100 72h-2c-22 -63 -98 -78 -162 -78c-101 0 -153 62 -153 159c0 120 92 130 214 154c23 5 74 19 100 30v62c0 46 -15 79 -88 79c-136 0 -25 -133 -137 -133c-30 0 -55 11 -55 54
c0 87 119 109 190 109c134 0 234 -15 234 -151zM359 215v86l-86 -31c-54 -19 -84 -48 -84 -138c0 -51 18 -96 74 -96c95 0 96 121 96 179zM129 555l122 176h92l122 -176h-56l-112 98l-112 -98h-56z" />
    <glyph glyph-name="adieresis" unicode="&#xe4;" horiz-adv-x="593" 
d="M503 351v-237c0 -64 10 -84 71 -84v-30c-37 -3 -75 -6 -112 -6c-60 0 -90 13 -100 72h-2c-22 -63 -98 -78 -162 -78c-101 0 -153 62 -153 159c0 120 92 130 214 154c23 5 74 19 100 30v62c0 46 -15 79 -88 79c-136 0 -25 -133 -137 -133c-30 0 -55 11 -55 54
c0 87 119 109 190 109c134 0 234 -15 234 -151zM359 215v86l-86 -31c-54 -19 -84 -48 -84 -138c0 -51 18 -96 74 -96c95 0 96 121 96 179zM126 628c0 36 30 66 66 66s66 -30 66 -66s-30 -66 -66 -66s-66 30 -66 66zM336 628c0 36 30 66 66 66s66 -30 66 -66s-30 -66 -66 -66
s-66 30 -66 66z" />
    <glyph glyph-name="agrave" unicode="&#xe0;" horiz-adv-x="593" 
d="M503 351v-237c0 -64 10 -84 71 -84v-30c-37 -3 -75 -6 -112 -6c-60 0 -90 13 -100 72h-2c-22 -63 -98 -78 -162 -78c-101 0 -153 62 -153 159c0 120 92 130 214 154c23 5 74 19 100 30v62c0 46 -15 79 -88 79c-136 0 -25 -133 -137 -133c-30 0 -55 11 -55 54
c0 87 119 109 190 109c134 0 234 -15 234 -151zM359 215v86l-86 -31c-54 -19 -84 -48 -84 -138c0 -51 18 -96 74 -96c95 0 96 121 96 179zM379 555h-56l-153 92c-24 15 -29 31 -29 46c0 22 16 44 48 44c27 0 43 -17 73 -50z" />
    <glyph glyph-name="aring" unicode="&#xe5;" horiz-adv-x="593" 
d="M503 351v-237c0 -64 10 -84 71 -84v-30c-37 -3 -75 -6 -112 -6c-60 0 -90 13 -100 72h-2c-22 -63 -98 -78 -162 -78c-101 0 -153 62 -153 159c0 120 92 130 214 154c23 5 74 19 100 30v62c0 46 -15 79 -88 79c-136 0 -25 -133 -137 -133c-30 0 -55 11 -55 54
c0 87 119 109 190 109c134 0 234 -15 234 -151zM359 215v86l-86 -31c-54 -19 -84 -48 -84 -138c0 -51 18 -96 74 -96c95 0 96 121 96 179zM191 644c0 59 47 106 106 106s106 -47 106 -106s-47 -106 -106 -106s-106 47 -106 106zM355 644c0 32 -26 58 -58 58s-58 -26 -58 -58
s26 -58 58 -58s58 26 58 58z" />
    <glyph glyph-name="atilde" unicode="&#xe3;" horiz-adv-x="593" 
d="M503 351v-237c0 -64 10 -84 71 -84v-30c-37 -3 -75 -6 -112 -6c-60 0 -90 13 -100 72h-2c-22 -63 -98 -78 -162 -78c-101 0 -153 62 -153 159c0 120 92 130 214 154c23 5 74 19 100 30v62c0 46 -15 79 -88 79c-136 0 -25 -133 -137 -133c-30 0 -55 11 -55 54
c0 87 119 109 190 109c134 0 234 -15 234 -151zM359 215v86l-86 -31c-54 -19 -84 -48 -84 -138c0 -51 18 -96 74 -96c95 0 96 121 96 179zM157 581h-43c15 61 41 125 115 125c56 0 123 -48 162 -48c26 0 41 25 46 47h43c-16 -60 -42 -125 -116 -125c-56 0 -123 48 -162 48
c-26 0 -41 -24 -45 -47z" />
    <glyph glyph-name="brokenbar" unicode="&#xa6;" horiz-adv-x="222" 
d="M59 -12v276h104v-276h-104zM59 451v276h104v-276h-104z" />
    <glyph glyph-name="ccedilla" unicode="&#xe7;" 
d="M488 160l27 -12c-32 -98 -97 -160 -210 -160c-155 0 -260 100 -260 257c0 148 107 257 260 257c78 0 193 -19 193 -129c0 -37 -23 -56 -59 -56c-58 0 -73 31 -73 84c0 45 -19 71 -61 71c-104 0 -104 -110 -104 -227c0 -93 10 -215 133 -215c85 0 127 59 154 130z
M198 -202l16 37c21 -8 42 -13 64 -13c37 0 53 14 53 40c0 24 -23 36 -44 36c-9 0 -20 -1 -30 -4l-11 8l43 98h42l-28 -65c10 3 22 5 38 5c43 0 86 -17 86 -70c0 -75 -81 -90 -142 -90c-24 0 -61 8 -87 18z" />
    <glyph glyph-name="copyright" unicode="&#xa9;" horiz-adv-x="800" 
d="M115 357c0 -164 117 -291 286 -291s284 127 284 291c0 165 -120 292 -284 292c-169 0 -286 -127 -286 -292zM577 270l-19 -89c-34 -19 -88 -33 -138 -33c-138 0 -226 73 -226 213c0 89 64 206 224 206c54 0 109 -10 141 -35v-78h-24c-10 43 -39 89 -104 89
c-80 0 -116 -70 -117 -176c-1 -110 27 -195 116 -195c57 0 99 40 121 98h26zM31 357c0 205 165 370 369 370s369 -165 369 -370c0 -204 -165 -369 -369 -369s-369 165 -369 369z" />
    <glyph glyph-name="degree" unicode="&#xb0;" horiz-adv-x="400" 
d="M57 563c0 79 64 143 143 143s143 -64 143 -143s-64 -143 -143 -143s-143 64 -143 143zM111 563c0 -49 40 -89 89 -89s89 40 89 89s-40 89 -89 89s-89 -40 -89 -89z" />
    <glyph glyph-name="divide" unicode="&#xf7;" horiz-adv-x="600" 
d="M47 201v104h506v-104h-506zM216 460c0 46 38 84 84 84s84 -38 84 -84s-38 -84 -84 -84s-84 38 -84 84zM216 46c0 46 38 84 84 84s84 -38 84 -84s-38 -84 -84 -84s-84 38 -84 84z" />
    <glyph glyph-name="eacute" unicode="&#xe9;" horiz-adv-x="574" 
d="M537 270h-336v-43c0 -89 16 -197 130 -197c84 0 137 48 170 120l27 -12c-40 -100 -120 -150 -223 -150c-155 0 -260 100 -260 257c0 148 107 257 260 257c130 0 232 -84 232 -232zM201 300h180v46c0 57 -14 126 -82 126c-93 0 -95 -108 -98 -172zM297 555h-56l117 132
c30 33 46 50 73 50c32 0 48 -22 48 -44c0 -15 -5 -31 -29 -46z" />
    <glyph glyph-name="ecircumflex" unicode="&#xea;" horiz-adv-x="574" 
d="M537 270h-336v-43c0 -89 16 -197 130 -197c84 0 137 48 170 120l27 -12c-40 -100 -120 -150 -223 -150c-155 0 -260 100 -260 257c0 148 107 257 260 257c130 0 232 -84 232 -232zM201 300h180v46c0 57 -14 126 -82 126c-93 0 -95 -108 -98 -172zM119 555l122 176h92
l122 -176h-56l-112 98l-112 -98h-56z" />
    <glyph glyph-name="edieresis" unicode="&#xeb;" horiz-adv-x="574" 
d="M537 270h-336v-43c0 -89 16 -197 130 -197c84 0 137 48 170 120l27 -12c-40 -100 -120 -150 -223 -150c-155 0 -260 100 -260 257c0 148 107 257 260 257c130 0 232 -84 232 -232zM201 300h180v46c0 57 -14 126 -82 126c-93 0 -95 -108 -98 -172zM116 628
c0 36 30 66 66 66s66 -30 66 -66s-30 -66 -66 -66s-66 30 -66 66zM326 628c0 36 30 66 66 66s66 -30 66 -66s-30 -66 -66 -66s-66 30 -66 66z" />
    <glyph glyph-name="egrave" unicode="&#xe8;" horiz-adv-x="574" 
d="M537 270h-336v-43c0 -89 16 -197 130 -197c84 0 137 48 170 120l27 -12c-40 -100 -120 -150 -223 -150c-155 0 -260 100 -260 257c0 148 107 257 260 257c130 0 232 -84 232 -232zM201 300h180v46c0 57 -14 126 -82 126c-93 0 -95 -108 -98 -172zM387 555h-56l-153 92
c-24 15 -29 31 -29 46c0 22 16 44 48 44c27 0 43 -17 73 -50z" />
    <glyph glyph-name="eth" unicode="&#xf0;" horiz-adv-x="610" 
d="M97 573l138 71c-57 35 -105 53 -138 62l26 30c48 -11 128 -33 178 -59l130 67l38 -32l-118 -60c143 -79 214 -220 214 -356c0 -201 -93 -308 -260 -308s-260 107 -260 257c-3 132 92 245 246 245c40 0 75 -11 98 -38h2c-19 68 -66 127 -115 161l-142 -72zM201 239
c0 -114 0 -221 104 -221s104 107 104 221s0 221 -104 221s-104 -107 -104 -221z" />
    <glyph glyph-name="iacute" unicode="&#xed;" horiz-adv-x="334" 
d="M23 0v30h72v430h-72v30h62c51 0 103 2 154 6v-466h72v-30h-288zM141 555h-56l117 132c30 33 46 50 73 50c32 0 48 -22 48 -44c0 -15 -5 -31 -29 -46z" />
    <glyph glyph-name="icircumflex" unicode="&#xee;" horiz-adv-x="334" 
d="M23 0v30h72v430h-72v30h62c51 0 103 2 154 6v-466h72v-30h-288zM-1 555l122 176h92l122 -176h-56l-112 98l-112 -98h-56z" />
    <glyph glyph-name="idieresis" unicode="&#xef;" horiz-adv-x="334" 
d="M23 0v30h72v430h-72v30h62c51 0 103 2 154 6v-466h72v-30h-288zM-4 628c0 36 30 66 66 66s66 -30 66 -66s-30 -66 -66 -66s-66 30 -66 66zM206 628c0 36 30 66 66 66s66 -30 66 -66s-30 -66 -66 -66s-66 30 -66 66z" />
    <glyph glyph-name="igrave" unicode="&#xec;" horiz-adv-x="334" 
d="M23 0v30h72v430h-72v30h62c51 0 103 2 154 6v-466h72v-30h-288zM240 555h-56l-153 92c-24 15 -29 31 -29 46c0 22 16 44 48 44c27 0 43 -17 73 -50z" />
    <glyph glyph-name="logicalnot" unicode="&#xac;" horiz-adv-x="600" 
d="M449 108v197h-402v104h506v-301h-104z" />
    <glyph glyph-name="minus" unicode="&#x2212;" horiz-adv-x="600" 
d="M47 201v104h506v-104h-506z" />
    <glyph glyph-name="mu" unicode="&#xb5;" horiz-adv-x="667" 
d="M572 496v-466h72v-30c-98 -1 -156 -2 -216 -6v76h-2c-34 -55 -97 -82 -159 -82c-27 0 -56 3 -74 18c3 -19 16 -97 16 -132c0 -64 -19 -94 -70 -94c-50 0 -69 30 -68 94c0 31 24 199 24 326v260h-72v30h62c51 0 103 2 154 6v-373c0 -77 37 -87 78 -87c64 0 111 53 111 160
v264h-72v30h62c51 0 103 2 154 6z" />
    <glyph glyph-name="multiply" unicode="&#xd7;" horiz-adv-x="600" 
d="M228 253l-162 162l72 72l162 -162l162 162l72 -72l-163 -162l163 -162l-72 -72l-162 163l-162 -163l-72 72z" />
    <glyph glyph-name="ntilde" unicode="&#xf1;" horiz-adv-x="667" 
d="M23 0v30h72v430h-72v30h62c51 0 103 2 154 6v-74h2c34 53 89 80 159 80c101 0 172 -54 172 -165v-307h72v-30h-288v30h72v327c0 78 -37 97 -78 97c-56 0 -111 -54 -111 -138v-286h72v-30h-288zM194 581h-43c15 61 41 125 115 125c56 0 123 -48 162 -48c26 0 41 25 46 47
h43c-16 -60 -42 -125 -116 -125c-56 0 -123 48 -162 48c-26 0 -41 -24 -45 -47z" />
    <glyph glyph-name="oacute" unicode="&#xf3;" horiz-adv-x="610" 
d="M409 245c0 117 0 227 -104 227s-104 -110 -104 -227s0 -227 104 -227s104 110 104 227zM565 245c0 -148 -107 -257 -260 -257c-155 0 -260 100 -260 257c0 148 107 257 260 257s260 -109 260 -257zM297 555h-56l117 132c30 33 46 50 73 50c32 0 48 -22 48 -44
c0 -15 -5 -31 -29 -46z" />
    <glyph glyph-name="ocircumflex" unicode="&#xf4;" horiz-adv-x="610" 
d="M409 245c0 117 0 227 -104 227s-104 -110 -104 -227s0 -227 104 -227s104 110 104 227zM565 245c0 -148 -107 -257 -260 -257c-155 0 -260 100 -260 257c0 148 107 257 260 257s260 -109 260 -257zM137 555l122 176h92l122 -176h-56l-112 98l-112 -98h-56z" />
    <glyph glyph-name="odieresis" unicode="&#xf6;" horiz-adv-x="610" 
d="M409 245c0 117 0 227 -104 227s-104 -110 -104 -227s0 -227 104 -227s104 110 104 227zM565 245c0 -148 -107 -257 -260 -257c-155 0 -260 100 -260 257c0 148 107 257 260 257s260 -109 260 -257zM134 628c0 36 30 66 66 66s66 -30 66 -66s-30 -66 -66 -66
s-66 30 -66 66zM344 628c0 36 30 66 66 66s66 -30 66 -66s-30 -66 -66 -66s-66 30 -66 66z" />
    <glyph glyph-name="ograve" unicode="&#xf2;" horiz-adv-x="610" 
d="M409 245c0 117 0 227 -104 227s-104 -110 -104 -227s0 -227 104 -227s104 110 104 227zM565 245c0 -148 -107 -257 -260 -257c-155 0 -260 100 -260 257c0 148 107 257 260 257s260 -109 260 -257zM387 555h-56l-153 92c-24 15 -29 31 -29 46c0 22 16 44 48 44
c27 0 43 -17 73 -50z" />
    <glyph glyph-name="onehalf" unicode="&#xbd;" horiz-adv-x="834" 
d="M146 -28l443 750h56l-443 -750h-56zM58 282v24h56v304c-17 -15 -37 -29 -58 -42l-10 21c48 33 112 83 135 117h47v-400h52v-24h-222zM739 0h-263c-4 0 -5 15 -5 20c0 4 5 9 9 13c76 71 174 157 174 254c0 45 -11 95 -69 95c-52 0 -78 -53 -78 -83c0 -45 25 -75 59 -94
l-12 -16c-43 23 -71 58 -71 111c0 65 54 124 140 124c92 0 145 -49 145 -126c0 -101 -129 -164 -186 -206v-2h95c54 0 74 6 91 56l20 -6z" />
    <glyph glyph-name="onequarter" unicode="&#xbc;" horiz-adv-x="834" 
d="M159 -28l443 750h56l-443 -750h-56zM58 282v24h56v304c-17 -15 -37 -29 -58 -42l-10 21c48 33 112 83 135 117h47v-400h52v-24h-222zM610 153v157h-2l-118 -157h120zM610 0v123h-150v27l202 274h62v-271h40v47h24v-128h-24v51h-40v-123h-114z" />
    <glyph glyph-name="onesuperior" unicode="&#xb9;" horiz-adv-x="361" 
d="M80 282v24h56v304c-17 -15 -37 -29 -58 -42l-10 21c48 33 112 83 135 117h47v-400h52v-24h-222z" />
    <glyph glyph-name="otilde" unicode="&#xf5;" horiz-adv-x="610" 
d="M409 245c0 117 0 227 -104 227s-104 -110 -104 -227s0 -227 104 -227s104 110 104 227zM565 245c0 -148 -107 -257 -260 -257c-155 0 -260 100 -260 257c0 148 107 257 260 257s260 -109 260 -257zM165 581h-43c15 61 41 125 115 125c56 0 123 -48 162 -48
c26 0 41 25 46 47h43c-16 -60 -42 -125 -116 -125c-56 0 -123 48 -162 48c-26 0 -41 -24 -45 -47z" />
    <glyph glyph-name="plusminus" unicode="&#xb1;" horiz-adv-x="600" 
d="M248 376v130h104v-130h201v-104h-201v-131h-104v131h-201v104h201zM47 0v104h506v-104h-506z" />
    <glyph glyph-name="registered" unicode="&#xae;" horiz-adv-x="800" 
d="M31 357c0 205 165 370 369 370s369 -165 369 -370c0 -204 -165 -369 -369 -369s-369 165 -369 369zM115 357c0 -164 117 -291 286 -291s284 127 284 291c0 165 -120 292 -284 292c-169 0 -286 -127 -286 -292zM230 164v24c43 0 44 5 44 37v265c0 32 -1 44 -44 44v17h204
c64 0 115 -31 115 -101c0 -44 -30 -88 -80 -103l59 -86c21 -30 44 -61 64 -73v-24h-91c-32 0 -68 98 -113 170h-24v-109c0 -32 0 -37 44 -37v-24h-178zM364 527v-169h32c45 0 57 46 57 89c0 60 -20 80 -54 80h-35z" />
    <glyph glyph-name="scaron" unicode="&#x161;" horiz-adv-x="463" 
d="M43 23v162h30c4 -90 63 -167 150 -167c51 0 101 20 101 72c0 115 -274 64 -274 258c0 103 79 154 176 154c75 0 116 -17 155 -32v-129h-30c-7 70 -61 131 -132 131c-40 0 -73 -21 -73 -62c0 -102 274 -55 274 -251c0 -111 -100 -171 -201 -171c-76 0 -139 22 -176 35z
M186 555l-122 176h56l112 -98l112 98h56l-122 -176h-92z" />
    <glyph glyph-name="thorn" unicode="&#xfe;" horiz-adv-x="648" 
d="M18 -220v30h72v875h-72v30h62c51 0 103 2 154 6v-300h2c28 57 73 81 143 81c147 0 224 -122 224 -257s-77 -257 -224 -257c-66 0 -112 20 -143 65h-2v-243h72v-30h-288zM447 245c0 117 0 221 -100 221c-45 0 -116 -34 -116 -221c0 -189 50 -221 116 -221
c100 0 100 104 100 221z" />
    <glyph glyph-name="threequarters" unicode="&#xbe;" horiz-adv-x="834" 
d="M159 -28l443 750h56l-443 -750h-56zM9 580l61 120h225l12 -12l-161 -138l2 -1c13 4 26 6 41 6c77 0 126 -60 126 -132c0 -91 -58 -147 -163 -147c-66 0 -103 24 -144 96l30 11c15 -36 53 -77 97 -77c62 0 66 59 66 111c0 39 0 108 -58 108c-34 0 -65 -34 -79 -50l-28 18
l146 121v2h-113l-29 -44zM610 153v157h-2l-118 -157h120zM610 0v123h-150v27l202 274h62v-271h40v47h24v-128h-24v51h-40v-123h-114z" />
    <glyph glyph-name="threesuperior" unicode="&#xb3;" horiz-adv-x="361" 
d="M28 580l61 120h225l12 -12l-161 -138l2 -1c13 4 26 6 41 6c77 0 126 -60 126 -132c0 -91 -58 -147 -163 -147c-66 0 -103 24 -144 96l30 11c15 -36 53 -77 97 -77c62 0 66 59 66 111c0 39 0 108 -58 108c-34 0 -65 -34 -79 -50l-28 18l146 121v2h-113l-29 -44z" />
    <glyph glyph-name="trademark" unicode="&#x2122;" horiz-adv-x="1000" 
d="M96 313v24c53 3 53 9 53 44v310h-47c-38 0 -56 -30 -63 -63h-24v87h371v-87h-24c-7 33 -25 63 -64 63h-45v-310c0 -35 1 -41 52 -44v-24h-209zM665 313l-134 282h-2v-186c0 -54 2 -69 51 -72v-24h-134v24c51 3 53 18 53 72v229c-17 35 -43 53 -73 53v24h151l134 -275
l145 275h129v-24c-49 -2 -56 -12 -56 -44v-266c0 -35 3 -41 54 -44v-24h-209v24c51 3 51 9 51 44v215h-2l-144 -283h-14z" />
    <glyph glyph-name="twosuperior" unicode="&#xb2;" horiz-adv-x="361" 
d="M290 282h-263c-4 0 -5 15 -5 20c0 4 5 9 9 13c76 71 174 157 174 254c0 45 -11 95 -69 95c-52 0 -78 -53 -78 -83c0 -45 25 -75 59 -94l-12 -16c-43 23 -71 58 -71 111c0 65 54 124 140 124c92 0 145 -49 145 -126c0 -101 -129 -164 -186 -206v-2h95c54 0 74 6 91 56
l20 -6z" />
    <glyph glyph-name="uacute" unicode="&#xfa;" horiz-adv-x="667" 
d="M572 496v-466h72v-30c-98 -1 -156 -2 -216 -6v76h-2c-34 -55 -97 -82 -159 -82c-101 0 -172 36 -172 165v307h-72v30h62c51 0 103 2 154 6v-373c0 -77 37 -87 78 -87c64 0 111 53 111 160v264h-72v30h62c51 0 103 2 154 6zM317 555h-56l117 132c30 33 46 50 73 50
c32 0 48 -22 48 -44c0 -15 -5 -31 -29 -46z" />
    <glyph glyph-name="ucircumflex" unicode="&#xfb;" horiz-adv-x="667" 
d="M572 496v-466h72v-30c-98 -1 -156 -2 -216 -6v76h-2c-34 -55 -97 -82 -159 -82c-101 0 -172 36 -172 165v307h-72v30h62c51 0 103 2 154 6v-373c0 -77 37 -87 78 -87c64 0 111 53 111 160v264h-72v30h62c51 0 103 2 154 6zM157 555l122 176h92l122 -176h-56l-112 98
l-112 -98h-56z" />
    <glyph glyph-name="udieresis" unicode="&#xfc;" horiz-adv-x="667" 
d="M572 496v-466h72v-30c-98 -1 -156 -2 -216 -6v76h-2c-34 -55 -97 -82 -159 -82c-101 0 -172 36 -172 165v307h-72v30h62c51 0 103 2 154 6v-373c0 -77 37 -87 78 -87c64 0 111 53 111 160v264h-72v30h62c51 0 103 2 154 6zM154 628c0 36 30 66 66 66s66 -30 66 -66
s-30 -66 -66 -66s-66 30 -66 66zM364 628c0 36 30 66 66 66s66 -30 66 -66s-30 -66 -66 -66s-66 30 -66 66z" />
    <glyph glyph-name="ugrave" unicode="&#xf9;" horiz-adv-x="667" 
d="M572 496v-466h72v-30c-98 -1 -156 -2 -216 -6v76h-2c-34 -55 -97 -82 -159 -82c-101 0 -172 36 -172 165v307h-72v30h62c51 0 103 2 154 6v-373c0 -77 37 -87 78 -87c64 0 111 53 111 160v264h-72v30h62c51 0 103 2 154 6zM407 555h-56l-153 92c-24 15 -29 31 -29 46
c0 22 16 44 48 44c27 0 43 -17 73 -50z" />
    <glyph glyph-name="yacute" unicode="&#xfd;" horiz-adv-x="574" 
d="M355 162l111 298h-72v30h176v-30h-66l-193 -497c-32 -83 -70 -183 -182 -183c-58 0 -108 39 -108 102c0 39 19 81 65 81s61 -31 61 -63c0 -25 -7 -32 -7 -48c0 -17 9 -30 28 -30c43 0 87 79 112 156l-204 482h-72v30h303v-30h-72zM297 555h-56l117 132c30 33 46 50 73 50
c32 0 48 -22 48 -44c0 -15 -5 -31 -29 -46z" />
    <glyph glyph-name="ydieresis" unicode="&#xff;" horiz-adv-x="574" 
d="M355 162l111 298h-72v30h176v-30h-66l-193 -497c-32 -83 -70 -183 -182 -183c-58 0 -108 39 -108 102c0 39 19 81 65 81s61 -31 61 -63c0 -25 -7 -32 -7 -48c0 -17 9 -30 28 -30c43 0 87 79 112 156l-204 482h-72v30h303v-30h-72zM116 628c0 36 30 66 66 66
s66 -30 66 -66s-30 -66 -66 -66s-66 30 -66 66zM326 628c0 36 30 66 66 66s66 -30 66 -66s-30 -66 -66 -66s-66 30 -66 66z" />
    <glyph glyph-name="zcaron" unicode="&#x17e;" horiz-adv-x="500" 
d="M63 321v169h411l-272 -460h57c125 0 175 71 178 160h30v-190h-441l273 460h-70c-83 0 -136 -55 -136 -139h-30zM204 555l-122 176h56l112 -98l112 98h56l-122 -176h-92z" />
    </font>
</defs>
</svg>
